<svg width="392" height="321" viewBox="0 0 392 321" fill="none" xmlns="http://www.w3.org/2000/svg">
<circle cx="189.503" cy="162.807" r="150" fill="#F80CF8"/>
<path d="M157.503 308.807C145.003 306.807 126.503 298.307 126.503 298.307C126.503 298.307 111.503 291.807 102.503 284.307C91.003 276.307 86.3845 270.277 76.503 260.807C64.503 249.307 53.503 225.307 53.503 225.307C53.503 225.307 44.003 200.807 42.503 187.307C38.5031 159.307 41.503 141.307 41.503 141.307C41.503 141.307 43.9479 126.643 46.503 118.807C54.003 95.8074 64.003 80.8074 64.003 80.8074C79.503 58.8074 97.503 42.9741 118.503 31.3074C136.503 21.3074 157.503 16.3075 157.503 16.3075C157.503 42.4973 157.503 58.8075 157.503 74.8075C157.503 74.8075 141.207 79.2666 134.003 82.8074C123.383 88.0275 119.352 90.7447 110.003 101.307C94.8265 118.455 86.536 143.65 85.503 165.807C84.5022 187.275 86.9707 199.328 96.503 216.807C102.334 227.499 118.503 236.307 118.503 236.307V204.093L102.503 202.807V158.307L157.503 159.307V308.807ZM209.003 310.428C185.003 314.807 166.503 310.428 166.503 310.428V14.3075C166.503 14.3075 185.503 10.3074 209.003 14.3075V310.428ZM336.503 188.307L271.809 190.316V287.307C247.503 304.807 220.003 308.807 220.003 308.807V16.3075C238.003 19.8075 253.503 27.6176 253.503 27.6176C253.503 27.6176 271.474 37.6262 282.003 45.8075C306.503 64.8449 319.859 90.3075 319.859 90.3075L271.809 86.8074V112.631V138.144H337.503C340.503 159.307 336.503 188.307 336.503 188.307Z" fill="#1B28DE"/>
<path d="M227.503 17.3075C258.003 4.14078 327.303 -11.7925 360.503 29.8075C393.703 71.4074 346.67 147.807 319.003 180.807C294.17 211.474 224.103 279.307 142.503 305.307C40.503 337.807 18.503 299.307 10.003 281.307C1.50304 263.307 -4.49696 219.307 39.503 161.807" stroke="white" stroke-width="6"/>
<circle cx="372" cy="79" r="20" fill="#F47575"/>
</svg>
